<svg xmlns="http://www.w3.org/2000/svg" width="18" height="18" viewBox="0 0 32 32" aria-hidden="true">
  <path fill="#25D366" d="M16 2.9C8.8 2.9 3 8.7 3 15.9c0 2.8.7 5.4 2.1 7.7L3 29l5.6-2c2.2 1.2 4.8 1.9 7.4 1.9 7.2 0 13-5.8 13-13S23.2 2.9 16 2.9z"/>
  <path fill="#fff" d="M23.1 19.6c-.3-.2-1.9-.9-2.2-1-.3-.1-.6-.2-.8.2-.2.3-.9 1-1.1 1.2-.2.2-.4.2-.7 0-.3-.2-1.3-.5-2.5-1.6-.9-.8-1.5-1.8-1.7-2.1-.2-.3 0-.5.1-.7.1-.1.3-.4.4-.5.1-.2.2-.3.3-.5.1-.2 0-.4 0-.6 0-.2-.8-1.9-1.1-2.6-.3-.7-.6-.6-.8-.6h-.7c-.2 0-.6.1-.9.4-.3.3-1.2 1.1-1.2 2.7s1.2 3.1 1.3 3.3c.2.2 2.4 3.7 5.9 5.2.8.3 1.4.5 1.9.6.8.3 1.5.3 2 .2.6-.1 1.9-.8 2.1-1.5.3-.7.3-1.3.2-1.5-.1-.2-.3-.3-.6-.5z"/>
</svg>
